<svg xmlns="http://www.w3.org/2000/svg" version="1.1" xmlns:xlink="http://www.w3.org/1999/xlink" xmlns:svgjs="http://svgjs.dev/svgjs" width="1440" height="720" preserveAspectRatio="none" viewBox="0 0 1440 720"><g mask="url(&quot;#SvgjsMask1018&quot;)" fill="none"><rect width="1440" height="720" x="0" y="0" fill="rgba(21, 27, 40, 1)"></rect><path d="M404.16 325.8a57.6 57.6 0 1 0-0.75 115.19z" stroke="rgba(143, 165, 195, 1)"></path><path d="M1389.7 726a66.29 66.29 0 1 0 21.33-130.85z" stroke="rgba(141, 138, 122, 1)"></path><path d="M494.11 549.23 a10.85 10.85 0 1 0 21.7 0 a10.85 10.85 0 1 0 -21.7 0z" stroke="rgba(143, 165, 195, 1)"></path><path d="M62.88 147.05L85.08 147.05L85.08 169.25L62.88 169.25z" stroke="rgba(143, 165, 195, 1)"></path><path d="M727.11 601.83L736.6 601.83L736.6 611.32L727.11 611.32z" fill="rgba(143, 165, 195, 1)"></path><path d="M879.35 241.06L936.05 241.06L936.05 306.75L879.35 306.75z" stroke="rgba(141, 138, 122, 1)"></path><path d="M878.16 414.15a50.91 50.91 0 1 0 10.85 101.24z" stroke="rgba(143, 165, 195, 1)"></path><path d="M1323.31 462.86 a4.76 4.76 0 1 0 9.52 0 a4.76 4.76 0 1 0 -9.52 0z" fill="rgba(143, 165, 195, 1)"></path><path d="M948.41 351.96 a52.51 52.51 0 1 0 105.02 0 a52.51 52.51 0 1 0 -105.02 0z" stroke="rgba(141, 138, 122, 1)"></path><path d="M27.24 60.96a17.84 17.84 0 1 0 34.58 8.76z" fill="rgba(141, 138, 122, 1)"></path><path d="M269.81 170.89L271.8 170.89L271.8 172.88L269.81 172.88z" fill="rgba(143, 165, 195, 1)"></path><path d="M440.3 527.78 a50.24 50.24 0 1 0 100.48 0 a50.24 50.24 0 1 0 -100.48 0z" fill="rgba(143, 165, 195, 1)"></path><path d="M580.13 14.22a43.08 43.08 0 1 0 84.76 15.46z" stroke="rgba(143, 165, 195, 1)"></path><path d="M1123.13 478.3 a17.97 17.97 0 1 0 35.94 0 a17.97 17.97 0 1 0 -35.94 0z" fill="rgba(141, 138, 122, 1)"></path><path d="M586.39 153.43L594.07 153.43L594.07 161.11L586.39 161.11z" fill="rgba(141, 138, 122, 1)"></path><path d="M387.72 92.18 a18.81 18.81 0 1 0 37.62 0 a18.81 18.81 0 1 0 -37.62 0z" fill="rgba(143, 165, 195, 1)"></path><path d="M1077.44 501.48a8.94 8.94 0 1 0 4.99-17.17z" stroke="rgba(143, 165, 195, 1)"></path><path d="M284.85 626 a26.22 26.22 0 1 0 52.44 0 a26.22 26.22 0 1 0 -52.44 0z" stroke="rgba(141, 138, 122, 1)"></path><path d="M1278.69 401.46L1286.25 401.46L1286.25 409.02L1278.69 409.02z" stroke="rgba(141, 138, 122, 1)"></path><path d="M1028.29 387.64a0.76 0.76 0 1 0-0.36-1.48z" stroke="rgba(143, 165, 195, 1)"></path><path d="M969.74 190.56L983.69 190.56L983.69 236.96L969.74 236.96z" fill="rgba(141, 138, 122, 1)"></path><path d="M196.44 256.11L209.63 256.11L209.63 267.57L196.44 267.57z" stroke="rgba(143, 165, 195, 1)"></path><path d="M1008.15 112.18a19.51 19.51 0 1 0-18.05-34.6z" fill="rgba(143, 165, 195, 1)"></path><path d="M198.81 305.47a22.22 22.22 0 1 0 36.88-24.8z" fill="rgba(143, 165, 195, 1)"></path><path d="M11.14 409.49L65.41 409.49L65.41 451.48L11.14 451.48z" stroke="rgba(141, 138, 122, 1)"></path></g><defs><mask id="SvgjsMask1018"><rect width="1440" height="720" fill="#ffffff"></rect></mask></defs></svg>