<svg xmlns="http://www.w3.org/2000/svg" version="1.1" xmlns:xlink="http://www.w3.org/1999/xlink" xmlns:svgjs="http://svgjs.dev/svgjs" width="1440" height="560" preserveAspectRatio="none" viewBox="0 0 1440 560"><g mask="url(&quot;#SvgjsMask1582&quot;)" fill="none"><rect width="1440" height="560" x="0" y="0" fill="rgba(21, 27, 40, 1)"></rect><rect width="238.32" height="238.32" clip-path="url(&quot;#SvgjsClipPath1583&quot;)" x="1200.73" y="249.7" fill="url(&quot;#SvgjsPattern1584&quot;)" transform="rotate(25.41, 1319.89, 368.86)"></rect><path d="M237.25 621.02 L210.26 585.62L244.66037751936543 582.4146224806345z" stroke="rgba(143, 165, 195, 1)" stroke-width="2.1" stroke-dasharray="3, 3"></path><path d="M151.24 249.92L157.37 261.16 147.75 269.61 153.88 280.85 144.26 289.3 150.39 300.55 140.77 309M143.36 248.52L149.5 259.76 139.87 268.21 146.01 279.46 136.38 287.91 142.52 299.15 132.89 307.6M135.49 247.13L141.62 258.37 132 266.82 138.13 278.06 128.51 286.51 134.64 297.75 125.02 306.2" stroke="rgba(143, 165, 195, 1)" stroke-width="1"></path><circle r="55.31252719750505" cx="916.56" cy="203.11" stroke="rgba(28, 174, 232, 1)" stroke-width="1.49" stroke-dasharray="3, 3"></circle><circle r="77.48150257136392" cx="1194.22" cy="291.51" fill="rgba(141, 138, 122, 1)"></circle><rect width="120" height="120" clip-path="url(&quot;#SvgjsClipPath1585&quot;)" x="874.35" y="142.1" fill="url(&quot;#SvgjsPattern1586&quot;)" transform="rotate(239.32, 934.35, 202.1)"></rect><path d="M586.23 424.17L594.63 433.83 587.04 444.15 595.44 453.82 587.85 464.13 596.25 473.8 588.66 484.12M578.23 424.49L586.63 434.16 579.04 444.48 587.44 454.14 579.86 464.46 588.26 474.13 580.67 484.44M570.24 424.82L578.64 434.48 571.05 444.8 579.45 454.47 571.86 464.78 580.26 474.45 572.68 484.77" stroke="rgba(143, 165, 195, 1)" stroke-width="1" stroke-dasharray="2, 2"></path><rect width="103" height="103" clip-path="url(&quot;#SvgjsClipPath1587&quot;)" x="1021.83" y="465.37" fill="url(&quot;#SvgjsPattern1588&quot;)" transform="rotate(292.59, 1073.33, 516.87)"></rect><path d="M780.12 191.84a5.6 5.6 0 1 0 3.27-10.71 5.6 5.6 0 1 0-3.27 10.71zM784.79 176.54a5.6 5.6 0 1 0 3.27-10.71 5.6 5.6 0 1 0-3.27 10.71zM789.46 161.23a5.6 5.6 0 1 0 3.27-10.71 5.6 5.6 0 1 0-3.27 10.71zM794.14 145.93a5.6 5.6 0 1 0 3.27-10.71 5.6 5.6 0 1 0-3.27 10.71zM786.08 227.12a5.6 5.6 0 1 0 3.27-10.71 5.6 5.6 0 1 0-3.27 10.71zM790.75 211.81a5.6 5.6 0 1 0 3.27-10.71 5.6 5.6 0 1 0-3.27 10.71zM795.42 196.51a5.6 5.6 0 1 0 3.27-10.71 5.6 5.6 0 1 0-3.27 10.71zM800.09 181.21a5.6 5.6 0 1 0 3.27-10.71 5.6 5.6 0 1 0-3.27 10.71zM792.03 262.39a5.6 5.6 0 1 0 3.27-10.71 5.6 5.6 0 1 0-3.27 10.71zM796.71 247.09a5.6 5.6 0 1 0 3.27-10.71 5.6 5.6 0 1 0-3.27 10.71zM801.38 231.79a5.6 5.6 0 1 0 3.27-10.71 5.6 5.6 0 1 0-3.27 10.71zM806.05 216.49a5.6 5.6 0 1 0 3.27-10.71 5.6 5.6 0 1 0-3.27 10.71z" stroke="rgba(143, 165, 195, 1)" stroke-width="1" stroke-dasharray="3, 2"></path><rect width="212.48" height="212.48" clip-path="url(&quot;#SvgjsClipPath1589&quot;)" x="418.18" y="13.79" fill="url(&quot;#SvgjsPattern1590&quot;)" transform="rotate(9.2, 524.42, 120.03)"></rect><path d="M750.38 411.47L762.74 408.12 768.73 419.44 781.09 416.09 787.07 427.42 799.43 424.06 805.41 435.39M747.19 418.81L759.55 415.46 765.54 426.78 777.9 423.43 783.88 434.75 796.24 431.4 802.22 442.72" stroke="rgba(141, 138, 122, 1)" stroke-width="2.86" stroke-dasharray="3, 2"></path><path d="M1555.69 392.76 L1527.06 318.02000000000004L1573.190229011649 323.57477098835085z" fill="rgba(28, 174, 232, 1)"></path></g><defs><mask id="SvgjsMask1582"><rect width="1440" height="560" fill="#ffffff"></rect></mask><pattern x="0" y="0" width="238.32" height="6.62" patternUnits="userSpaceOnUse" id="SvgjsPattern1584"><rect width="238.32" height="3.31" x="0" y="0" fill="rgba(28, 174, 232, 1)"></rect><rect width="238.32" height="3.31" x="0" y="3.31" fill="rgba(0, 0, 0, 0)"></rect></pattern><clipPath id="SvgjsClipPath1583"><circle r="59.58" cx="1319.89" cy="368.86"></circle></clipPath><pattern x="0" y="0" width="6" height="6" patternUnits="userSpaceOnUse" id="SvgjsPattern1586"><path d="M3 1L3 5M1 3L5 3" stroke="rgba(143, 165, 195, 1)" fill="none" stroke-width="1.39"></path></pattern><clipPath id="SvgjsClipPath1585"><circle r="30" cx="934.35" cy="202.1"></circle></clipPath><pattern x="0" y="0" width="103" height="10.3" patternUnits="userSpaceOnUse" id="SvgjsPattern1588"><rect width="103" height="5.15" x="0" y="0" fill="rgba(141, 138, 122, 1)"></rect><rect width="103" height="5.15" x="0" y="5.15" fill="rgba(0, 0, 0, 0)"></rect></pattern><clipPath id="SvgjsClipPath1587"><circle r="25.75" cx="1073.33" cy="516.87"></circle></clipPath><pattern x="0" y="0" width="6.64" height="6.64" patternUnits="userSpaceOnUse" id="SvgjsPattern1590"><path d="M3.32 1L3.32 5.64M1 3.32L5.64 3.32" stroke="rgba(28, 174, 232, 1)" fill="none" stroke-width="1.05"></path></pattern><clipPath id="SvgjsClipPath1589"><circle r="53.12" cx="524.42" cy="120.03"></circle></clipPath></defs></svg>